<?xml version="1.0" encoding="UTF-8"?>
<svg id="Layer_1" xmlns="http://www.w3.org/2000/svg" version="1.1" viewBox="0 0 24 24">
  <!-- Generator: Adobe Illustrator 30.0.0, SVG Export Plug-In . SVG Version: 2.1.1 Build 123)  -->
  <defs>
    <style>
      .st0 {
        fill: #6aa07a;
      }

      .st1 {
        fill: #fff;
      }
    </style>
  </defs>
  <path class="st0" d="M1.3,1.97c0-.62.6-1.11,1.34-1.11.33,0,.66.08.94.22l1.25.67c.57.3,1.3.3,1.87,0l1.25-.67c.57-.3,1.3-.3,1.87,0l1.25.67c.57.3,1.3.3,1.87,0l1.25-.67c.57-.3,1.3-.3,1.87,0l1.25.67c.57.3,1.3.3,1.87,0l1.25-.67c.28-.15.61-.22.94-.22.74,0,1.34.5,1.34,1.11v20.06c0,.62-.6,1.11-1.34,1.11-.33,0-.66-.08-.94-.22l-1.25-.67c-.57-.3-1.3-.3-1.87,0l-1.25.67c-.57.3-1.3.3-1.87,0l-1.25-.67c-.57-.3-1.3-.3-1.87,0l-1.25.67c-.57.3-1.3.3-1.87,0l-1.25-.67c-.57-.3-1.3-.3-1.87,0l-1.25.67c-.28.15-.61.22-.94.22-.74,0-1.34-.5-1.34-1.11V1.97Z"/>
  <path class="st1" d="M15.03,11h-2.03v-4.05h5.05c.55,0,1-.45,1-1s-.45-1-1-1h-5.05v-.51c0-.55-.45-1-1-1s-1,.45-1,1v.51h-2.03c-2.22,0-4.03,1.81-4.03,4.03s1.81,4.03,4.03,4.03h2.03v4.05h-5.05c-.55,0-1,.45-1,1s.45,1,1,1h5.05v.51c0,.55.45,1,1,1s1-.45,1-1v-.51h2.03c2.22,0,4.03-1.81,4.03-4.03s-1.81-4.03-4.03-4.03ZM8.97,11c-1.12,0-2.03-.91-2.03-2.03s.91-2.03,2.03-2.03h2.03v4.05h-2.03ZM15.03,17.05h-2.03v-4.05h2.03c1.12,0,2.03.91,2.03,2.03s-.91,2.03-2.03,2.03Z"/>
</svg>